<?xml version="1.0" standalone="no"?>
<!DOCTYPE svg PUBLIC "-//W3C//DTD SVG 20010904//EN"
 "http://www.w3.org/TR/2001/REC-SVG-20010904/DTD/svg10.dtd">
<svg version="1.0" xmlns="http://www.w3.org/2000/svg"
 width="300.000000pt" height="72.000000pt" viewBox="0 0 300.000000 72.000000"
 preserveAspectRatio="xMidYMid meet">
<metadata>
Created by potrace 1.10, written by Peter Selinger 2001-2011
</metadata>
<g transform="translate(0.000000,72.000000) scale(0.100000,-0.100000)"
fill="#000000" stroke="none">
<path d="M253 598 c-18 -6 -33 -15 -33 -19 0 -5 18 -2 41 7 29 12 56 15 97 10
39 -4 52 -3 42 4 -19 12 -105 11 -147 -2z"/>
<path d="M313 552 c-18 -20 -36 -51 -39 -69 -3 -17 -12 -34 -19 -37 -9 -3 -11
-13 -7 -28 5 -22 5 -22 -12 -5 -22 21 -44 23 -26 2 8 -10 10 -36 6 -87 l-7
-73 36 90 c19 50 47 113 60 141 14 28 25 57 25 63 0 7 8 11 18 9 15 -3 17 -17
15 -136 -1 -73 2 -130 6 -127 5 2 21 34 37 70 30 69 54 85 54 36 0 -63 58
-120 97 -95 23 14 15 29 -15 29 -23 0 -31 8 -52 52 -28 59 -42 69 -65 47 -23
-24 -35 -8 -31 44 3 36 -1 55 -17 79 -12 18 -24 33 -27 32 -3 0 -20 -17 -37
-37z"/>
<path d="M136 503 c-4 -10 -14 -31 -22 -46 -9 -16 -14 -31 -11 -33 3 -3 15 16
27 41 12 25 20 48 17 51 -2 3 -7 -3 -11 -13z"/>
<path d="M538 470 c9 -22 20 -40 24 -40 4 0 3 10 -2 23 -6 12 -13 30 -16 40
-4 9 -10 17 -14 17 -5 0 -1 -18 8 -40z"/>
<path d="M310 433 c-40 -114 -99 -238 -112 -238 -10 0 -12 25 -9 110 2 78 0
107 -8 100 -6 -6 -14 -44 -17 -84 -6 -64 -9 -72 -20 -56 -7 10 -15 23 -17 29
-2 6 -8 8 -12 4 -16 -15 72 -138 100 -138 13 0 65 99 65 125 0 11 5 15 14 12
8 -3 17 -1 20 6 4 7 4 1 2 -12 -3 -15 3 -32 18 -48 l24 -25 30 22 c17 12 33
31 35 42 6 20 6 20 28 -1 21 -19 40 -26 63 -22 5 1 4 -5 -3 -13 -24 -28 -1
-37 24 -8 l23 27 -41 10 c-32 8 -44 18 -60 48 l-20 39 -31 -59 c-54 -102 -77
-67 -67 105 3 51 3 92 0 92 -3 0 -16 -30 -29 -67z"/>
<path d="M1045 470 c-27 -10 -41 -28 -49 -63 l-7 -28 -30 25 c-31 26 -82 35
-94 16 -4 -6 -11 -8 -16 -5 -5 4 -9 1 -9 -4 0 -21 -15 -10 -31 22 -34 69 -89
25 -89 -70 0 -49 4 -63 23 -81 20 -19 35 -22 113 -22 82 0 93 2 113 24 l22 24
24 -24 c29 -29 35 -29 62 -5 19 18 21 18 47 2 38 -26 305 -23 355 3 18 10 31
13 27 8 -11 -19 50 -31 140 -29 76 2 95 6 118 25 l28 22 18 -22 c16 -20 27
-22 156 -23 83 -1 144 2 152 8 9 7 24 7 47 -2 24 -8 40 -9 53 -2 11 6 22 7 26
3 4 -3 131 -7 282 -7 264 -1 275 0 294 20 13 14 16 25 10 35 -5 8 -6 33 -3 56
5 37 3 43 -26 63 -30 22 -33 22 -58 6 -22 -15 -51 -17 -187 -16 -177 1 -219 3
-226 11 -3 3 -19 13 -36 22 -28 16 -33 16 -38 3 -3 -8 -12 -15 -20 -15 -7 0
-16 -6 -19 -14 -5 -11 -22 -14 -79 -10 -117 7 -145 15 -133 35 10 15 -52 10
-68 -5 -17 -18 -46 -15 -61 6 -12 16 -48 9 -61 -11 -3 -6 -10 -9 -14 -7 -4 3
-9 -23 -10 -57 -1 -34 -6 -66 -10 -70 -5 -5 -6 12 -4 38 5 36 3 45 -8 43 -8
-2 -13 2 -12 9 2 7 -12 15 -30 18 -44 8 -206 2 -200 -7 2 -5 -3 -8 -11 -8 -9
0 -16 -5 -16 -12 0 -6 -9 -2 -20 10 -46 49 -62 54 -105 32 -24 -12 -43 -16
-53 -11 -8 5 -27 6 -41 2 -14 -4 -35 -6 -46 -5 -76 8 -97 13 -110 30 -7 11
-17 16 -20 12 -4 -4 -15 -3 -24 1 -9 5 -25 5 -36 1z m1253 -37 c2 -8 -6 -13
-22 -13 -25 0 -33 10 -19 24 10 10 36 3 41 -11z m-1508 -57 c0 -64 0 -65 28
-64 19 1 32 8 38 22 5 12 20 22 37 24 15 2 27 8 27 14 0 6 -12 8 -30 5 -23 -5
-30 -3 -30 9 0 12 10 14 43 12 l42 -3 3 -52 3 -52 -100 0 -101 0 0 74 c0 68 2
75 20 75 18 0 20 -7 20 -64z m330 49 c0 -10 -10 -15 -31 -15 -24 0 -30 -4 -27
-17 2 -11 12 -18 25 -18 32 0 29 -19 -2 -23 -23 -3 -26 -7 -20 -33 6 -25 4
-29 -14 -29 -19 0 -21 6 -21 75 l0 75 45 0 c33 0 45 -4 45 -15z m769 -37 c8
-27 17 -48 21 -48 4 0 13 21 21 48 12 38 20 48 39 50 25 3 25 2 25 -73 0 -64
-3 -75 -17 -75 -13 0 -18 11 -20 48 l-4 47 -13 -47 c-18 -64 -44 -65 -61 -3
-7 25 -15 45 -19 45 -3 0 -5 -20 -3 -45 3 -38 1 -45 -14 -45 -17 0 -19 9 -19
75 0 75 0 76 25 73 19 -2 27 -12 39 -50z m-459 27 c0 -8 7 -15 15 -15 8 0 15
-4 15 -10 0 -5 -7 -10 -15 -10 -10 0 -15 -11 -15 -35 0 -24 5 -35 15 -35 8 0
15 -5 15 -11 0 -6 -12 -9 -27 -7 -25 3 -28 8 -31 43 -2 22 -9 43 -15 47 -9 6
-8 11 3 18 8 5 11 10 7 10 -5 0 -5 5 -2 10 10 15 35 12 35 -5z m1354 0 c-4 -9
0 -15 10 -15 9 0 16 -4 16 -10 0 -5 -7 -10 -15 -10 -10 0 -15 -10 -15 -30 0
-18 6 -33 15 -36 25 -10 17 -26 -12 -22 -25 3 -28 8 -31 43 -2 22 -9 44 -15
48 -9 6 -9 10 1 14 6 2 12 11 12 19 0 8 9 14 20 14 13 0 18 -5 14 -15z m-1556
-27 c7 -7 12 -26 12 -43 0 -17 -5 -36 -12 -43 -16 -16 -70 -16 -86 0 -15 15
-16 53 -2 79 12 22 68 27 88 7z m132 -7 c5 -11 10 -36 10 -55 0 -29 -4 -36
-20 -36 -17 0 -20 7 -20 46 0 59 -24 55 -28 -4 -3 -34 -7 -42 -23 -42 -16 0
-19 7 -19 55 l0 55 45 0 c34 0 47 -5 55 -19z m254 3 c13 -34 7 -44 -30 -44
-24 0 -34 -4 -31 -12 2 -8 18 -12 36 -10 23 2 32 -2 29 -10 -6 -17 -66 -22
-84 -7 -17 14 -19 70 -2 87 18 18 75 15 82 -4z m126 -41 c5 -48 4 -53 -15 -53
-18 0 -20 5 -16 46 3 40 1 45 -15 42 -15 -3 -19 -12 -19 -46 0 -33 -4 -42 -17
-42 -15 0 -18 9 -18 56 l0 55 48 -3 47 -3 5 -52z m380 38 c26 -49 -1 -94 -54
-89 -43 4 -65 48 -42 84 21 31 80 34 96 5z m57 -11 c8 -43 20 -45 27 -5 5 26
12 35 26 35 19 0 19 -1 0 -50 -11 -28 -20 -53 -20 -55 0 -3 -9 -5 -20 -5 -13
0 -22 9 -26 28 -4 15 -13 39 -21 55 -13 25 -12 27 7 27 15 0 22 -8 27 -30z
m113 -25 c0 -46 -3 -55 -17 -55 -15 0 -18 8 -15 55 3 39 8 55 18 55 10 0 14
-14 14 -55z m190 -2 c5 -46 3 -53 -12 -53 -14 0 -18 8 -18 39 0 42 -16 63 -31
40 -5 -8 -8 -29 -6 -46 2 -26 -1 -33 -14 -33 -14 0 -19 10 -21 42 -4 59 -28
63 -28 4 0 -39 -3 -46 -20 -46 -18 0 -20 7 -20 55 l0 55 83 -2 82 -3 5 -52z
m114 41 c13 -34 7 -44 -30 -44 -24 0 -34 -4 -31 -12 2 -8 18 -12 36 -10 23 2
32 -2 29 -10 -7 -21 -70 -22 -85 -2 -16 22 -17 66 -1 82 18 18 75 15 82 -4z
m120 0 c12 -32 7 -94 -8 -94 -10 0 -16 14 -18 43 -2 29 -8 42 -18 42 -10 0
-16 -13 -18 -42 -2 -33 -7 -43 -20 -43 -14 0 -17 10 -17 55 l0 55 46 0 c34 0
49 -5 53 -16z"/>
<path d="M890 340 c-12 -7 -12 -12 -2 -22 10 -10 15 -10 22 2 19 29 9 39 -20
20z"/>
<path d="M1163 364 c-7 -20 9 -49 28 -49 22 0 18 59 -4 63 -9 2 -20 -4 -24
-14z"/>
<path d="M2057 373 c-11 -10 -8 -51 4 -59 18 -10 42 21 34 45 -6 21 -25 28
-38 14z"/>
<path d="M285 140 c3 -5 24 -10 46 -10 21 0 39 5 39 10 0 6 -21 10 -46 10 -27
0 -43 -4 -39 -10z"/>
</g>
</svg>
